Coordinates
version=1
nRows=9
nColumns=24
inDegrees=yes

Units are S.I. units (second, meters, Newtons, ...)
Angles are in degrees.

endheader
time	pelvis_tilt	pelvis_list	pelvis_rotation	pelvis_tx	pelvis_ty	pelvis_tz	hip_flexion_r	hip_adduction_r	hip_rotation_r	knee_angle_r	ankle_angle_r	subtalar_angle_r	mtp_angle_r	hip_flexion_l	hip_adduction_l	hip_rotation_l	knee_angle_l	ankle_angle_l	subtalar_angle_l	mtp_angle_l	lumbar_extension	lumbar_bending	lumbar_rotation
      0.54200000	      6.05901732	      0.28241240	      2.06077604	     -0.82564406	      0.99727125	      0.31388390	     15.78897473	      1.98407137	     -4.39095472	     -1.87212594	      3.17934517	    -12.26868438	     -0.47876877	    -22.91741059	      3.38233990	      2.12742288	     -6.11489758	      8.67540272	     -5.14540112	      0.27849502	     -8.38213208	      2.61199993	     -0.45283632
      0.54616667	      6.05976120	      0.19026943	      2.05569772	     -0.81968609	      0.99673590	      0.31422009	     15.78147758	      2.15736167	     -4.33918823	     -2.13181699	      2.99299301	    -12.39054041	     -0.66727353	    -22.99216570	      3.23388191	      1.82249555	     -6.66763884	      8.80260970	     -4.59851789	      0.36194535	     -8.32608410	      2.72896200	     -0.50432381
      0.55033333	      6.01970194	      0.11796126	      2.03866154	     -0.81368551	      0.99619164	      0.31454927	     15.84703301	      2.30557193	     -4.28342565	     -2.50749586	      2.80001391	    -12.50455923	     -0.79556722	    -23.05561566	      3.12376041	      1.67935904	     -7.14688498	      8.76935394	     -4.34145114	      0.44563648	     -8.21806369	      2.82264503	     -0.53593248
      0.55450000	      5.97796795	      0.03797050	      2.01056582	     -0.80765865	      0.99565806	      0.31489994	     15.91665088	      2.46551092	     -4.19491430	     -2.93050915	      2.55366520	    -12.63220078	     -0.88955747	    -23.09409909	      3.00848473	      1.50659470	     -7.67692901	      8.73595307	     -4.08189296	      0.54031428	     -8.10334504	      2.92308914	     -0.57389925
      0.55866667	      5.95638389	     -0.03433223	      1.99111078	     -0.80163035	      0.99518967	      0.31527095	     15.94591521	      2.62075404	     -4.04051139	     -3.35943115	      2.28627594	    -12.82872017	     -0.99480835	    -23.10605251	      2.88996285	      1.28717991	     -8.29944259	      8.71732729	     -3.74781061	      0.70073246	     -8.01980802	      3.00488427	     -0.60859499
      0.56283333	      5.90129204	     -0.11383516	      1.95722334	     -0.79555051	      0.99470811	      0.31565168	     16.01900061	      2.78602593	     -3.86312980	     -3.83973602	      1.95332694	    -13.07079232	     -1.07930205	    -23.07390491	      2.77261945	      1.08430128	     -8.93133487	      8.64566873	     -3.46762144	      0.89732422	     -7.88622445	      3.10462047	     -0.63428979
      0.56700000	      5.86683957	     -0.21251547	      1.90799882	     -0.78940388	      0.99428219	      0.31606484	     16.06820202	      2.97637751	     -3.68541480	     -4.34976398	      1.54458307	    -13.28212518	     -1.12595731	    -23.08451046	      2.64100984	      0.90966661	     -9.51966906	      8.47275793	     -3.22981376	      1.06633694	     -7.77951045	      3.21661389	     -0.65132949
      0.57116667	      5.85224288	     -0.33451365	      1.87730625	     -0.78324634	      0.99393303	      0.31648403	     16.02784792	      3.20862195	     -3.31440611	     -4.75672873	      1.07239991	    -14.06030962	     -1.39397687	    -23.06068011	      2.47136256	      0.69916847	    -10.21669942	      8.33576276	     -2.99371335	      2.86179115	     -7.67849073	      3.37828816	     -0.62611389
      0.57533333	      5.77333595	     -0.40117519	      1.80775167	     -0.77708423	      0.99350346	      0.31692606	     16.14299305	      3.36356214	     -3.11694344	     -5.35090984	      0.67629084	    -14.10257040	     -1.40216052	    -22.93944522	      2.37437434	      0.46306301	    -10.96520107	      8.11350786	     -2.72084178	      3.00618971	     -7.51064821	      3.45303905	     -0.67209942
